<?xml version="1.0" encoding="UTF-8"?>
<!DOCTYPE svg PUBLIC "-//W3C//DTD SVG 1.1//EN" "http://www.w3.org/Graphics/SVG/1.1/DTD/svg11.dtd">
<svg xmlns="http://www.w3.org/2000/svg" version="1.1" width="1920px" height="1080px" style="shape-rendering:geometricPrecision; text-rendering:geometricPrecision; image-rendering:optimizeQuality; fill-rule:evenodd; clip-rule:evenodd" xmlns:xlink="http://www.w3.org/1999/xlink">
<g><path style="opacity:0.997" fill="#6c9785" d="M 1262.5,65.5 C 1279.81,63.386 1290.31,70.7193 1294,87.5C 1299.78,124.869 1305.78,162.202 1312,199.5C 1373.92,306.337 1435.59,413.337 1497,520.5C 1507,544.5 1507,568.5 1497,592.5C 1432.34,706.488 1366.68,819.821 1300,932.5C 1285.46,949.023 1267.29,959.19 1245.5,963C 1113.5,963.667 981.5,963.667 849.5,963C 823.045,958.368 802.545,944.868 788,922.5C 726,815.167 664,707.833 602,600.5C 588.372,574.45 587.039,547.783 598,520.5C 662.657,406.512 728.323,293.179 795,180.5C 809.541,163.977 827.707,153.81 849.5,150C 952.5,149.667 1055.5,149.333 1158.5,149C 1190.38,124.129 1221.38,98.1285 1251.5,71C 1254.99,68.588 1258.66,66.7547 1262.5,65.5 Z"/></g>
<g><path style="opacity:1" fill="#f1e6d4" d="M 1249.5,138.5 C 1250.75,138.577 1251.58,139.244 1252,140.5C 1260.72,192.444 1269.06,244.444 1277,296.5C 1281.95,329.035 1285.28,361.701 1287,394.5C 1266.19,372.355 1242.02,354.855 1214.5,342C 1204.39,339.093 1196.23,341.927 1190,350.5C 1160.7,383.466 1131.04,416.132 1101,448.5C 1107.85,417.604 1114.51,386.604 1121,355.5C 1123.67,343.166 1124,330.833 1122,318.5C 1119.04,313.769 1114.88,310.602 1109.5,309C 1081.78,308.936 1054.11,309.936 1026.5,312C 1080.5,271 1134.5,230 1188.5,189C 1209.31,172.68 1229.65,155.846 1249.5,138.5 Z"/></g>
<g><path style="opacity:1" fill="#393e46" d="M 870.5,249.5 C 922.501,249.333 974.501,249.5 1026.5,250C 977.384,286.772 929.718,325.439 883.5,366C 854.019,392.233 829.186,422.066 809,455.5C 774.252,519.756 768.918,586.423 793,655.5C 810.676,701.501 839.842,738.334 880.5,766C 895.37,769.978 906.204,765.145 913,751.5C 915.907,742.447 914.573,734.114 909,726.5C 848.615,681.711 821.948,621.711 829,546.5C 834.638,512.903 847.638,482.57 868,455.5C 883.029,436.464 899.529,418.631 917.5,402C 933.872,387.293 950.539,372.959 967.5,359C 1006.11,351.365 1045.11,347.199 1084.5,346.5C 1076.85,396.106 1064.35,444.439 1047,491.5C 1043.26,499.986 1039.26,508.319 1035,516.5C 1031.87,528.083 1035.71,536.583 1046.5,542C 1052.89,543.209 1058.89,542.209 1064.5,539C 1075.6,529.9 1086.1,520.067 1096,509.5C 1134.38,466.746 1173.21,424.413 1212.5,382.5C 1225.15,389.647 1236.81,398.147 1247.5,408C 1262.37,421.199 1276.2,435.366 1289,450.5C 1288.69,492.366 1283.86,533.699 1274.5,574.5C 1249.46,668.704 1189.46,726.87 1094.5,749C 1087.81,749.87 1081.15,750.87 1074.5,752C 1059.17,752.333 1043.83,752.667 1028.5,753C 1010.49,761.017 1005.99,773.85 1015,791.5C 1019.89,797.197 1026.06,800.697 1033.5,802C 1143.72,805.148 1228.88,760.982 1289,669.5C 1312.37,627.061 1326.7,581.728 1332,533.5C 1335.97,504.972 1338.3,476.305 1339,447.5C 1359.83,483.833 1380.67,520.167 1401.5,556.5C 1342.88,658.912 1283.88,761.078 1224.5,863C 1106.5,863.667 988.5,863.667 870.5,863C 811.121,761.078 752.121,658.912 693.5,556.5C 752.259,453.976 811.259,351.643 870.5,249.5 Z"/></g>
</svg>
